<svg xmlns="http://www.w3.org/2000/svg" xmlns:xlink="http://www.w3.org/1999/xlink" viewBox="0 0 486.22 358.15"><defs><style>.cls-1{fill:none;}.cls-2{clip-path:url(#clip-path);}.cls-3{fill:#dedede;}.cls-4{fill:#d7d7d7;}.cls-5{fill:#b6b6b6;}.cls-6{opacity:0.43;}.cls-7{fill:#b86757;}.cls-8{opacity:0.22;}.cls-9{fill:#3f4d58;}.cls-10{fill:#fff;}.cls-11{fill:#57524d;}.cls-12{fill:#d8af73;}.cls-13{fill:#e3c8a1;}.cls-14{fill:#c7bfb9;}.cls-15{fill:#bb9275;}.cls-16{fill:#cba284;}.cls-17{fill:#d9cfc8;}.cls-18{fill:#d3cdc1;}.cls-19{fill:#8e7662;}.cls-20{fill:#343a4c;}.cls-21{fill:#969188;}.cls-22{fill:#cdc5b9;}.cls-23{fill:#8f3421;}.cls-24{fill:#5d6a73;}.cls-25{fill:#ede2da;}.cls-26{fill:#243340;}.cls-27{fill:#474747;}.cls-28{fill:#232734;}.cls-29{fill:#6b6865;}.cls-30{fill:#3a3c57;}.cls-31{fill:#888380;}.cls-32{fill:#5c5956;}.cls-33{fill:#b4aca8;}.cls-34{fill:#d7cec6;}.cls-35{fill:#cba385;}.cls-36{fill:#dfd5cc;}.cls-37{fill:#2f3944;}.cls-38{fill:url(#linear-gradient);}.cls-39{fill:#7f7e7c;}.cls-40{fill:#d5d4df;}.cls-41{fill:#bebdc6;}</style><clipPath id="clip-path"><path class="cls-1" d="M317.93,175.67c-8.76,182.55-264.91,177.64-271.36,0C55.33-6.87,311.48-2,317.93,175.67Z"/></clipPath><linearGradient id="linear-gradient" x1="-511.3" y1="-363.71" x2="-169.93" y2="-363.71" gradientTransform="translate(511.3 551.3)" gradientUnits="userSpaceOnUse"><stop offset="0" stop-color="#b86757"/><stop offset="1" stop-color="#e5d7af"/></linearGradient></defs><title>Recurso 1</title><g id="Capa_2" data-name="Capa 2"><g id="Capa_1-2" data-name="Capa 1"><g class="cls-2"><rect class="cls-3" x="113.92" y="143.45" width="0.97" height="101.63"/><rect class="cls-3" x="182.79" y="143.45" width="0.97" height="101.63"/><rect class="cls-3" x="251.67" y="143.45" width="0.97" height="101.63"/><rect class="cls-4" x="113.66" y="130.93" width="19.37" height="2.65"/><rect class="cls-4" x="113.66" y="135.82" width="12.38" height="2.65"/><rect class="cls-4" x="183.76" y="130.93" width="12" height="2.65"/><rect class="cls-4" x="183.76" y="135.82" width="13.99" height="2.65"/><rect class="cls-4" x="252.64" y="130.93" width="17.48" height="2.65"/><rect class="cls-4" x="252.64" y="135.82" width="13.99" height="2.65"/><rect class="cls-5" x="114.4" y="251.1" width="10.96" height="3.53"/><rect class="cls-5" x="183.76" y="251.1" width="10.96" height="3.53"/><rect class="cls-5" x="252.64" y="251.1" width="10.96" height="3.53"/><rect class="cls-5" x="321.51" y="251.1" width="10.96" height="3.53"/><g class="cls-6"><path class="cls-7" d="M297.16,214.88c-39.26-.55-70-30-106.46-37.68C137.37,165,114.51,193.64,91,203.46c-18.28,8.47-51,.14-45.5-11.75h0c1.23,5.77,24.06,14.91,42.61,8.11C211,118.37,233.78,230.05,321,206.19v4.93A70.22,70.22,0,0,1,297.16,214.88Z"/></g><g class="cls-8"><path class="cls-9" d="M168.21,213.73c-51.36-10.36-74.07-74.37-122.68-30.84v-6.77c12.63-14.44,44.8-15.92,66.32-1.38,20.56,13,35.13,34.39,56.66,34.43,62.48-18.54,92.11-88.61,152.66-32.59l-.14,6.15C256.82,119.21,206.87,216.42,168.21,213.73Z"/></g><rect class="cls-10" x="354.04" y="285.04" width="18.35" height="1.29"/><rect class="cls-10" x="354.04" y="287.46" width="18.35" height="5.41"/><rect class="cls-10" x="345.42" y="294.68" width="10.82" height="0.81"/><rect class="cls-10" x="345.42" y="295.85" width="10.82" height="2.19"/><rect class="cls-10" x="375.4" y="278.1" width="0.81" height="15.15"/><polygon class="cls-11" points="253.55 282.43 246.42 234.99 247.79 234.77 254.93 282.22 253.55 282.43"/><polygon class="cls-11" points="244.84 282.43 237.71 234.99 239.08 234.77 246.21 282.22 244.84 282.43"/><polygon class="cls-11" points="201.93 282.43 200.56 282.22 207.69 234.77 209.07 234.99 201.93 282.43"/><path class="cls-12" d="M248.65,235.47l5.59-58.79s-9.77-1.28-15.68-1l-8.88,59.76Z"/><rect class="cls-12" x="229.68" y="232.48" width="18.97" height="2.99"/><path class="cls-12" d="M217.27,233.07l-3-56s24.74-2.69,39.93-.37Z"/><path class="cls-13" d="M237,158.91c7.1-20.91-23.2-20.52-18.49-1.53,3.68,10.62-2.54,11.81-5.37,20.53C210.91,191.08,238.18,158.86,237,158.91Z"/><path class="cls-14" d="M227.3,279.44c-1.24,12.13,4.32,9.09,8.66,2-.47-5.89-5.65-20.23-11.56-11.84C224.4,269.62,228.52,272.45,227.3,279.44Z"/><path class="cls-15" d="M224.4,269.62c5.45,25.29,12.5,5.8,2.8-2.68A3.59,3.59,0,0,0,224.4,269.62Z"/><path class="cls-14" d="M232.44,270.28l3.85,5.62-.73.5C234.61,274.57,232.19,272.75,232.44,270.28Z"/><path class="cls-15" d="M218.57,208.11c4.77,10.16-20.7,11.25-13.11,24.13,32.12,73.14,22.29,26.72,11.51-2.4l21.59-21S236,203,218.57,208.11Z"/><path class="cls-7" d="M226.79,172.23c-33.18,13.93-6.65,17.5,7.06,18.56l4.38,16C263.29,206.66,247,165.27,226.79,172.23Z"/><path class="cls-16" d="M241,208.64c5.76,13.09,9,26.19-10.58,24.41,2.9,7.23.61,48-6.66,44.87C224.36,226.32,195.56,225.24,241,208.64Z"/><path class="cls-17" d="M220,285.59c-8.47,8.62-2.67,9.6,5.32,7.15,3.22-4.56,8.8-19.52-1.41-16.61C223.9,276.13,225.33,280.92,220,285.59Z"/><path class="cls-16" d="M223.9,276.13c-11.67,23.08,6.07,12.37,3.87-.33A3.59,3.59,0,0,0,223.9,276.13Z"/><path class="cls-17" d="M229.74,281.69l-.54,6.8-.88-.07C228.73,286.4,228,283.46,229.74,281.69Z"/><path class="cls-7" d="M245.16,227.07c-4.31,8.9-9.95,5.24-14.79,6-1.83-6.43-25.18-8.45-24.74-.32-7.91-17.41,19.14-15.2,12.94-24.62,17.38-5.12,20,.7,20,.7.76-.11,2.71-1.23,3.54-1.24C243.21,210.42,247.66,218.82,245.16,227.07Z"/><polygon class="cls-18" points="237.95 182.87 240.52 206.77 206.69 206.77 204.12 182.87 237.95 182.87"/><rect class="cls-18" x="237.56" y="204.62" width="5.65" height="2.15"/><path class="cls-16" d="M230.53,146.14c10,2.69,7,23.74-.2,22.84C221.19,168.72,218.12,142.67,230.53,146.14Z"/><path class="cls-16" d="M234.14,167c1.26,7.3-1.67,8.46-8.23,6.62C223.27,164,227.94,163.42,234.14,167Z"/><path class="cls-13" d="M228.57,150.83s4.12,6.56,8.46,8.08c2.66-16.7-20-19.4-14.93,1.38A29.19,29.19,0,0,1,228.57,150.83Z"/><path class="cls-19" d="M226.77,167.47a5.13,5.13,0,0,0,6.84.33C233.54,170.11,227.23,170.61,226.77,167.47Z"/><path class="cls-20" d="M223.05,149.84c1.76-4.74,9.46-5.36,11.67-1.39C232.21,142.63,223.51,145.52,223.05,149.84Z"/><path class="cls-16" d="M235.38,172.18c-.13,9.55-11.94,9.75-10.48.51A20.07,20.07,0,0,1,235.38,172.18Z"/><rect class="cls-21" x="120.51" y="212.59" width="3.16" height="78.22"/><rect class="cls-21" x="480.99" y="212.59" width="3.16" height="78.22"/><rect class="cls-22" x="119.12" y="207.36" width="367.1" height="5.23"/><path class="cls-23" d="M138.43,202.56c-33.18,1.74-24-7.07,0-4.82Z"/><path class="cls-9" d="M141.18,207.38c-33.18,1.74-24-7.07,0-4.82Z"/><path class="cls-7" d="M147.6,202.56c-33.19,1.74-24-7.07,0-4.82Z"/><path class="cls-24" d="M150.35,207.38c-33.19,1.74-24-7.07,0-4.82Z"/><path class="cls-25" d="M147.6,202.06c-32.42,1.52-22.39-5.68,0-3.83Z"/><path class="cls-25" d="M150.35,206.81c-32.28,1.47-22.34-5.5,0-3.69Z"/><polygon class="cls-16" points="65.97 278.32 67.24 274.08 72.98 274.9 72.19 278.72 65.97 278.32"/><polygon class="cls-16" points="103.7 278.63 104.06 280.94 110.31 279.79 109.92 276.34 103.7 278.63"/><path class="cls-26" d="M89,204.58c-.27,16-9.74,56.23-14.78,71-15.07,3.4-4.85-8.05-4.06-26.16,2.82-12.39,2.49-41.64,3.2-54.05C73.35,195.35,88.53,202.33,89,204.58Z"/><path class="cls-26" d="M97.38,192.69c4.79,17.85,13.09,66.27,13.92,84.48,0,0-2.55,1.78-8.65,1.47-4.6-23.48-15.6-68.36-29.47-87.58C73.18,191.06,83.21,185.19,97.38,192.69Z"/><path class="cls-16" d="M118.61,151.49c10.17-5.62,6.29-1.63,1,1,13.65-5,6.81-.57.69,1.46,10-3.8,8-1,.45,1.54,8-2.2,6-.25.09,1.37Z"/><path class="cls-16" d="M112.48,156.2c1.08,1.1,3.37-11.24,3.94-6.85-1,5.93.71,1.33,3.29,2.45,4.48,6.44-1.71,5.11-5,7.39Z"/><path class="cls-9" d="M93.36,151.38c4.81,19,11.47,5.9,20.31,3.78,7.79,5.41-16.93,16-19.12,17.49C92.24,166.17,89.26,153,93.36,151.38Z"/><path class="cls-16" d="M94.61,134.48c.77,9.64-1.88,7.33-7.47,2.05a86.22,86.22,0,0,0-.21-12.24C86.34,117.84,94.61,134.48,94.61,134.48Z"/><path class="cls-9" d="M97.71,173.2c-1,6.56-.13,14.37.77,23.78,0,0-5.31,2.77-26.28,6.14,1.47-48.87,3.39-59,15-66.79C99.33,140.72,102.41,160.55,97.71,173.2Z"/><path class="cls-19" d="M94.54,135.52c0,.46-.07,1.35-.09,2A20.86,20.86,0,0,1,90,133.31C91.21,134.48,94.54,135.52,94.54,135.52Z"/><path class="cls-16" d="M87.15,136.33s9.92,10.88,12.39,18.82C99.3,154.4,97,137.64,87.15,136.33Z"/><path class="cls-16" d="M99.53,118.2c8.32,10.7-3.42,24.91-11.5,12.68C78.75,116.35,99.2,113.23,99.53,118.2Z"/><path class="cls-27" d="M99.28,117.73c7.36-10.79-27.48-7.06-12,13.21,0-2.84,2.85-4.31,4.44-6.65L92,125l1.79-.12C89.63,117.22,95.8,119.18,99.28,117.73Z"/><path class="cls-27" d="M93.76,124.88c3,9.42,7.73-.27,7.82,12.07.21,2.07-12.21-2.85-11.56-3.64,0,0,3-5.79,2-8.31Z"/><path class="cls-16" d="M91.7,123.55c-3.18-3.23-5.86,2.25-1.25,4.33C91.44,127.72,92.47,126.61,91.7,123.55Z"/><path class="cls-16" d="M115.68,197c10.68-.63,15.91,11.62,6.55,3.28C132.48,213.41,100.65,195.41,115.68,197Z"/><path class="cls-7" d="M104.06,280.94c3.57.7,6.81-5,7.72-.77,3.41,6.4,16.79,5.46,12.5,9.75C110.85,291.43,99.64,294.13,104.06,280.94Z"/><path class="cls-7" d="M66,278.32c3.41,1.26,7.51-3.89,7.74.47,1,5.52,22.22,12,5.6,11.56C64.25,287.7,61.79,290.12,66,278.32Z"/><path class="cls-26" d="M97.74,189.18C85.41,181,85.19,164.89,83,159.2,86.74,167.51,98.26,180.44,97.74,189.18Z"/><path class="cls-9" d="M92.12,147c-16.85-16-11,13.92-2.23,30.42,2.41,5,19.75,20.73,22.12,22.19l4.31-2.82C92.16,171.68,96.34,161.86,92.12,147Z"/><path class="cls-16" d="M186.46,186.05c2.25-10.89,20.33-21.57,6.19-7.64.27.49,7.42-8.76,7.07-3.59,1.15.3-.45,3.49-2.28,4.72,3.74-.47-6,7.3-7.23,8.63Z"/><path class="cls-23" d="M132.51,183.14s-2.49,1-1.48,13.07,5.26-4.13,5.26-4.13Z"/><path class="cls-28" d="M156.27,287c.44,5.54-2.92,3.86-5.68,3.6l-.42-4S155.63,286.48,156.27,287Z"/><path class="cls-26" d="M155.8,290.43c1.27,2,13.14,4.92,11.9,6.18-7.1,4.78-23.37,4.45-17.15-6.41C150.55,290.2,152,291.17,155.8,290.43Z"/><rect class="cls-29" x="142.1" y="217.61" width="2.86" height="79.1"/><path class="cls-26" d="M165.84,248.75c-2.83,4.36-3.59,47.11-16.88,38.44-.44-4.36.32-33.75.62-39.83Z"/><path class="cls-30" d="M188.76,187.57h0C188.81,187.6,188.81,187.6,188.76,187.57Z"/><polygon class="cls-31" points="120.43 296.45 121.18 298.55 152.7 288.78 151.19 284.53 120.43 296.45"/><rect class="cls-31" x="150.2" y="253.01" width="3.58" height="34.27"/><rect class="cls-32" x="141.43" y="251.19" width="21.13" height="2.02"/><polygon class="cls-31" points="183.83 296.45 183.09 298.55 151.56 288.78 152.95 284.26 183.83 296.45"/><polygon class="cls-31" points="161.62 298.32 161.62 300.77 151.56 288.78 152.95 284.26 161.62 298.32"/><path class="cls-33" d="M186.78,299.37c-.88,6.48-10.59-.1-2.95-2.95C184.84,296.49,186.24,297.13,186.78,299.37Z"/><path class="cls-33" d="M161.87,299.37c-.87,6.48-10.58-.1-3-2.95C159.93,296.49,161.34,297.13,161.87,299.37Z"/><path class="cls-33" d="M123.38,299.37c-.87,6.48-10.58-.1-2.95-2.95C121.44,296.49,122.84,297.13,123.38,299.37Z"/><path class="cls-34" d="M173.34,251.19c-3.66-1.94-57,5.71-44.35-7.12C131.38,243.37,193.31,239.41,173.34,251.19Z"/><path class="cls-28" d="M179.48,292.41l-.75,4.3c-5.84.11-6.38-1.53-5.14-5.84Z"/><path class="cls-26" d="M172.94,295.32c-9.68,18.4,46.73,9.33,6,.24C178.93,295.56,178.91,297.4,172.94,295.32Z"/><path class="cls-9" d="M136.9,230.76c-5.27,21,37.54,12.62,46.66,16.1,0,0-11.56,45.26-11.56,46l7.91,1.52c1.72-6.78,24.58-44.45,19.91-52.82C185.64,222.24,144.89,229.8,136.9,230.76Z"/><path class="cls-35" d="M145.18,171.52c-1.6,10.42,5.52,8.63,10,7.64C157.87,170,149.41,172.93,145.18,171.52Z"/><path class="cls-35" d="M157,154.52c6.74,8.81,3.85,27.65-10.47,18.45C132.29,156.9,146.32,148.53,157,154.52Z"/><path class="cls-36" d="M185.47,186.15l1-1.54c.53.71,7.56,3.13,4.3,5.45Z"/><path class="cls-37" d="M159.53,158.94c6.42-16.34-34.41-10.45-14.33,13,9.3-2.06,6.94-20.26,11.42-7l1.38.23S155.43,157.55,159.53,158.94Z"/><path class="cls-36" d="M155.22,179.16v-1.08s-7.89-2.36-9.83-1.24l0,1.09Z"/><path class="cls-7" d="M132.51,183.14c43.48-19.66,37.1,33.47,52.43,2.62l6.32,4.64c-13.3,26.41-14.24,25.33-24.16,12-9.49,21.31,9.24,23.29-1.9,27.92C121.4,256,140,198.7,132.51,183.14Z"/><polygon class="cls-23" points="176.95 197.18 181.25 201.32 178.72 194.69 176.95 197.18"/><path class="cls-34" d="M135.79,238.18c-29.87,6.21-25.36-50.05-6.25-47.82C159.41,184.16,154.9,240.42,135.79,238.18Z"/><path class="cls-34" d="M143.81,249.29c-20.63,2-21-38.12-14.07-26C127.71,252.47,152,241.55,143.81,249.29Z"/></g><path class="cls-38" d="M334.52,140.9C311.15,57,227.48,8,149.56,18.39,47,31.47-18.44,129.47,4.63,227.32,32.19,342,163,392,258.62,333.65h0C306.57,301.36,360.74,227,334.52,140.9ZM209.66,296.69C64.57,341.3-7.89,144.44,123.62,81.49,275.36,24,355,238,209.66,296.69Z"/><path class="cls-7" d="M368.1,131.23l-86,24.52c-9.06-33-34.54-61.21-64.24-74.1L240,32h0C241.6,28.41,252.62,3.73,254.29,0A205.5,205.5,0,0,1,368.1,131.23Z"/><path class="cls-24" d="M242.36,26.72,217.83,81.65a115.81,115.81,0,0,0-61.53-9.23c-.37-3-7.26-58.65-7.38-59.7C178.74,8.85,213.25,13.5,242.36,26.72Z"/><path class="cls-9" d="M156.3,72.42a122.37,122.37,0,0,0-28.21,7.2c-4.39-11.14-22.16-56.31-26-66A189.91,189.91,0,0,1,147.59,2C149,13.46,154.82,60.42,156.3,72.42Z"/><path class="cls-16" d="M290.28,187.35c5.2,8.61-.09,14.75,1.19,6.52-1.14,9-10.3,3.48-5.86-6.12Z"/><path class="cls-16" d="M291.27,197c-3,14-4,8-1.68.38-3.74,18.12-3.91,7.88-2-.23-3.46,16.52-3.8,7.15-1.94-.52-3.7,12-3.21,4.62-1.54-.82Z"/><path class="cls-26" d="M328.09,296.65c21.88,22.09-13.8,17.33-7.26,0Z"/><path class="cls-9" d="M292.09,192.1c12.65-24.23,6.65-88.57-3-54,1.95,15.08-3.61,40.33-5,52.3Z"/><path class="cls-16" d="M349.14,191.92c-.51,2.19,12.18,3.88,8.89,5.32-4.55-.54-5.5-1.63-3.12,3.25-8.23,6.55-7-.92-9.65-5.94Z"/><path class="cls-16" d="M354.73,199.87c6.59,13.18,1.76,8.1-1.28,1.15,5.58,17.64.44,8.79-1.87.79,5,16.11.17,8.09-2,.49,2.65,12.3-.54,5.6-1.73,0Z"/><path class="cls-26" d="M286.32,296.29c-24.43,12.15-5.89,13.73,7.41,7C298.45,293.54,288.3,295.8,286.32,296.29Z"/><path class="cls-39" d="M286.7,294.48c-2.49,3.07,9.91,3.47,6.67-1.06Z"/><path class="cls-39" d="M320.92,295.46c-2.37,2.79,10.74,4,6.77-.67Z"/><path class="cls-26" d="M293.67,188.61c-.85,22.27-19.33,119.32,1.13,106.18,18.93-150.22,16.52-77.36,24.8,1.32,0,0,7.68,1.53,9.73-.2C329.35,179.62,342.86,168.17,293.67,188.61Z"/><path class="cls-40" d="M348.11,192.42c-9.51,11.63-16.08-42.58-16.64-43.31v0c-3.61,6.14-3.66,37.23-3,42.13-8.18,2.7-29.25,3.79-36.74,0,2.34-16.57.5-45.7-.38-61.59C353.47,97.65,337.24,160.75,348.11,192.42Z"/><path class="cls-26" d="M292.42,189.22s16.38,1.39,30.72,0v4.71s-21.36,2-31.43-.9Z"/><path class="cls-9" d="M291.07,129.6c6.15,71.9-11.82,74.73,1.71,80,2.33-19.74,8.05-70.75,13.61-87C305.12,123,291.07,129.6,291.07,129.6Z"/><path class="cls-9" d="M333.41,164.19c3.41,10,5.73,39.85,18.71,29.47-20.82-66.43-.87-63.34-29.9-72.17-15.25,13.59-2.42,82-2.76,88.06,30.5-7,.75-36.76,11.68-58.81A100.05,100.05,0,0,1,333.41,164.19Z"/><path class="cls-16" d="M313.37,92.44c-2.23-.5-13.21-3.81-10.58,16.38C305.89,140,338.43,96.91,313.37,92.44Z"/><path class="cls-27" d="M321.27,109.59c.34-2.22-2.09-7-4.3-2.51l-1.39-.08c.58-2.69.93-6.17-4.15-5.67-21.36,1.36-3-20.67,8.94-10C327.85,91,322.93,105.72,321.27,109.59Z"/><path class="cls-16" d="M317.63,103.3c3.35-2.67,4.11,2.58.4,5.66C315.92,110.57,316.5,106.78,317.63,103.3Z"/><path class="cls-35" d="M319.26,122.07c.12-9.92,1.67-10.92-10.52-6.14C308.06,121.45,308.3,127.48,319.26,122.07Z"/><path class="cls-19" d="M308.73,121.49a9.73,9.73,0,0,0,9.08-5.44c-3.59,3.64-9,3.29-9,3.29A20.21,20.21,0,0,1,308.73,121.49Z"/><path class="cls-7" d="M311.48,126.09l-2.07,2.78a2.5,2.5,0,0,0,3.36.42Z"/><path class="cls-7" d="M310,129c-.11.76-11.52,46.72-3.51,57.06,4.78-4.52,1.88-41.23,5.18-57.13Z"/><path class="cls-35" d="M309.26,123.5l2.22,2.59C320.81,122.66,312.93,122.19,309.26,123.5Z"/><path class="cls-41" d="M308.76,121.24s.25,2,2.72,4.85l-2.69,3.62-1.46-7.5Z"/><path class="cls-41" d="M318.93,119.22s-3.86,5.45-7.45,6.87l1.67,4.13,7.63-9.22Z"/></g></g></svg>